<?xml version="1.0" encoding="UTF-8" standalone="no"?>
<!-- Created with Inkscape (http://www.inkscape.org/) -->

<svg
   width="80"
   height="40"
   viewBox="0 0 21.166667 10.583334"
   version="1.1"
   id="svg1"
   xml:space="preserve"
   xmlns="http://www.w3.org/2000/svg"
   xmlns:svg="http://www.w3.org/2000/svg"><defs
     id="defs1" /><g
     id="layer1"><path
       d="m 3.5757518,9.1901366 c 0,0.6244157 0.5052302,1.1296464 1.1296469,1.1296464 0.6244166,0 1.1296468,-0.5052307 1.1296468,-1.1296464 z"
       id="path33" fill="#0070bb" /><path
       d="M 2.8610668,7.5628458 V 8.8278849 H 6.5466297 V 7.5628458 Z"
       id="path32" fill="#0070bb" /><path
       d="m 0.94903882,6.1861856 c -0.05519,0.00124 -0.1112697,0.01325 -0.1648478,0.037724 L 0.46431395,6.3670531 c -0.2143125,0.09525 -0.3097072,0.3463768 -0.2144572,0.5606893 0.071438,0.15875 0.2245651,0.2516642 0.38860667,0.2516642 0.058208,0 0.1165201,-0.010749 0.1720826,-0.037207 L 1.1309398,6.9995727 C 1.3452523,6.9043227 1.440647,6.6526791 1.345397,6.4383666 1.2739595,6.2776322 1.1146101,6.1824649 0.94903882,6.1861856 Z"
       id="path31" fill="#0070bb" /><path
       d="m 0.52890945,2.8199828 c -0.1653232,0.00571 -0.32089,0.1085825 -0.38240562,0.2713013 -0.084667,0.2196041 0.026438,0.4657493 0.24339602,0.5477702 l 0.32814527,0.1245402 c 0.050271,0.018521 0.1006244,0.028939 0.1508952,0.028939 0.17197918,0 0.33072918,-0.1030015 0.39687498,-0.2723348 C 1.350482,3.3005943 1.2393777,3.0544491 1.0224193,2.9724283 L 0.69427402,2.8478881 C 0.64003442,2.8267211 0.58401712,2.8180811 0.52890945,2.8199828 Z"
       id="path30" fill="#0070bb" /><path
       d="m 2.9520173,0.26458326 c -0.05519,7.442e-4 -0.1112697,0.012506 -0.1648478,0.035657 -0.2143125,0.09525 -0.3096452,0.34637677 -0.217041,0.56068927 L 2.7132722,1.1813233 v 0.00258 c 0.071438,0.15875 0.2245651,0.2511474 0.3886068,0.2511474 0.058208,0 0.11652,-0.010232 0.1720825,-0.03669 0.2143125,-0.09525 0.3096452,-0.3468936 0.217041,-0.56120607 L 3.3478588,0.51728103 C 3.2764213,0.35654666 3.1175886,0.26235086 2.9520173,0.26458326 Z"
       id="path29" fill="#0070bb" /><path
       d="m 6.4608467,0.17518306 c -0.1653229,0.006077 -0.3208896,0.107549 -0.3824052,0.2702677 L 5.954418,0.77359613 c -0.084667,0.2196042 0.026438,0.46574927 0.243396,0.54777017 0.050271,0.018521 0.1001076,0.028939 0.1503784,0.028939 0.1719793,0 0.3307293,-0.1030015 0.3968753,-0.2723348 l 0.12454,-0.32814537 c 0.08467,-0.2196041 -0.02644,-0.46574927 -0.243396,-0.54777007 -0.05424,-0.020505 -0.110257,-0.028898 -0.165365,-0.026872 z"
       id="path28" fill="#0070bb" /><path
       d="m 9.0162455,2.5879556 c -0.05519,0.00124 -0.11127,0.01325 -0.164848,0.037724 l -0.320394,0.1431437 c -0.2143117,0.09525 -0.3091897,0.3463768 -0.2139397,0.5606893 0.07144,0.15875 0.2245647,0.2516643 0.3886067,0.2516643 0.05821,0 0.11652,-0.010749 0.172082,-0.037207 l 0.3203937,-0.143144 c 0.214312,-0.09525 0.30919,-0.3463768 0.21394,-0.5606893 -0.07144,-0.1607344 -0.23027,-0.2559017 -0.3958407,-0.252181 z"
       id="path27" fill="#0070bb" /><path
       d="m 4.7064322,1.6970539 c -0.8126016,0 -1.6258026,0.296168 -2.2184693,0.8888347 -0.5926666,0.5926666 -0.9177734,1.3787065 -0.9177734,2.2174357 0,0.8387291 0.3251068,1.624769 0.9177734,2.2174357 L 2.6125031,7.1447834 H 6.7982937 L 6.9223174,7.02076 c 0.216958,-0.2169583 0.378602,-0.4606231 0.518831,-0.7172689 0.03704,0.018521 0.07698,0.039605 0.1219567,0.047542 0.01852,0.00265 0.145272,0.023771 0.341064,0.023771 0.5635627,0 1.7038118,-0.1692093 2.5398959,-1.3942302 C 10.576356,4.7874286 10.526106,4.5227213 10.33296,4.3904296 10.139815,4.2581379 9.8751069,4.3083881 9.7428159,4.5015339 8.9940455,5.5995547 7.9491901,5.5413051 7.7481061,5.5174926 7.9862308,4.4962009 7.7160671,3.3796386 6.9223174,2.5858886 6.3309739,1.9932219 5.5190337,1.6970539 4.7064322,1.6970539 Z M 4.202587,2.9858642 c 0.2354791,0 0.4258138,0.1903346 0.4258138,0.4258138 v 0.5953125 c 0,0.2354791 -0.1903347,0.4258138 -0.4258138,0.4258138 -0.2354792,0 -0.4258138,-0.1903347 -0.4258138,-0.4258138 V 3.411678 c 0,-0.2354792 0.1903346,-0.4258138 0.4258138,-0.4258138 z m 1.5187703,0.00258 c 0.2354792,0 0.4258138,0.1903346 0.4258138,0.4258138 v 0.5953125 c 0,0.2354791 -0.1903346,0.4258138 -0.4258138,0.4258138 -0.2354791,0 -0.4258138,-0.1903347 -0.4258138,-0.4258138 V 3.4142618 c 0,-0.2354792 0.1903347,-0.4258138 0.4258138,-0.4258138 z M 3.2264192,4.9164957 c 0.054322,-2.067e-4 0.1101741,0.00775 0.1663981,0.024288 0.1164166,0.037042 0.2116873,0.077101 0.2857706,0.1167887 0.1825625,0.09525 0.3334577,0.1503991 0.4816244,0.1715658 0.2010833,0.03175 0.6746875,0.1034975 0.7276042,0.5162475 0.034396,0.2619375 -0.1242302,0.4683952 -0.4681885,0.6139161 h 0.00258 c -0.1481667,0.0635 -0.2938529,0.089917 -0.434082,0.089917 -0.4180417,0 -0.7829186,-0.2460418 -1.0025228,-0.5079793 C 2.7395445,5.644906 2.6814395,5.348552 2.8269603,5.126302 2.9162572,4.9913645 3.0634524,4.9171158 3.2264192,4.9164957 Z"
       id="path26" fill="#0070bb" /><path
       d="m 17.643623,9.1901366 c 0,0.6244157 -0.50523,1.1296464 -1.129648,1.1296464 -0.624417,0 -1.129647,-0.5052307 -1.129647,-1.1296464 z"
       id="path34" fill="#0070bb" /><path
       d="M 18.358308,7.5628458 V 8.8278849 H 14.672743 V 7.5628458 Z"
       id="path35" fill="#0070bb" /><path
       d="m 20.270336,6.1861856 c 0.05519,0.00124 0.111269,0.01325 0.164848,0.037724 l 0.319877,0.1431435 c 0.214312,0.09525 0.309707,0.3463768 0.214457,0.5606893 -0.07144,0.15875 -0.224565,0.2516642 -0.388607,0.2516642 -0.05821,0 -0.11652,-0.010749 -0.172082,-0.037207 L 20.088435,6.9995727 c -0.214313,-0.09525 -0.309707,-0.3468936 -0.214457,-0.5612061 0.07144,-0.1607344 0.230786,-0.2559017 0.396358,-0.252181 z"
       id="path36" fill="#0070bb" /><path
       d="m 20.690465,2.8199828 c 0.165323,0.00571 0.32089,0.1085825 0.382406,0.2713013 0.08467,0.2196041 -0.02644,0.4657493 -0.243396,0.5477702 l -0.328146,0.1245402 c -0.05027,0.018521 -0.100624,0.028939 -0.150895,0.028939 -0.171979,0 -0.330729,-0.1030015 -0.396875,-0.2723348 -0.08467,-0.2196044 0.02644,-0.4657496 0.243396,-0.5477704 l 0.328146,-0.1245402 c 0.05424,-0.021167 0.110256,-0.029807 0.165364,-0.027905 z"
       id="path37" fill="#0070bb" /><path
       d="m 18.267357,0.26458326 c 0.05519,7.442e-4 0.11127,0.012506 0.164848,0.035657 0.214313,0.09525 0.309645,0.34637677 0.217041,0.56068927 L 18.506102,1.1813233 v 0.00258 c -0.07144,0.15875 -0.224565,0.2511474 -0.388606,0.2511474 -0.05821,0 -0.11652,-0.010232 -0.172083,-0.03669 -0.214312,-0.09525 -0.309645,-0.3468936 -0.217041,-0.56120607 l 0.143144,-0.3198736 c 0.07144,-0.16073437 0.23027,-0.25493017 0.395841,-0.25269777 z"
       id="path38" fill="#0070bb" /><path
       d="m 14.758526,0.17518306 c 0.165323,0.00608 0.32089,0.107549 0.382406,0.2702677 l 0.124023,0.32814537 c 0.08467,0.2196042 -0.02644,0.46574927 -0.243396,0.54777017 -0.05027,0.018521 -0.100107,0.028939 -0.150378,0.028939 -0.17198,0 -0.33073,-0.1030015 -0.396876,-0.2723348 l -0.12454,-0.32814537 c -0.08467,-0.2196041 0.02644,-0.46574927 0.243396,-0.54777007 0.05424,-0.020505 0.110257,-0.028898 0.165365,-0.026872 z"
       id="path39" fill="#0070bb" /><path
       d="m 12.203125,2.5879556 c 0.05519,0.00124 0.11127,0.01325 0.164848,0.037724 l 0.320394,0.1431437 c 0.214312,0.09525 0.30919,0.3463768 0.21394,0.5606893 -0.07144,0.15875 -0.224565,0.2516643 -0.388607,0.2516643 -0.05821,0 -0.11652,-0.010749 -0.172082,-0.037207 l -0.320394,-0.143144 c -0.214312,-0.09525 -0.30919,-0.3463768 -0.21394,-0.5606893 0.07144,-0.1607344 0.23027,-0.2559017 0.395841,-0.252181 z"
       id="path40" fill="#0070bb" /><path
       d="m 16.512942,1.6970539 c 0.812602,0 1.625803,0.296168 2.21847,0.8888347 0.592666,0.5926666 0.917773,1.3787065 0.917773,2.2174357 0,0.8387291 -0.325107,1.624769 -0.917773,2.2174357 L 18.606871,7.1447834 H 14.421079 L 14.297055,7.02076 C 14.080097,6.8038017 13.918453,6.5601369 13.778224,6.3034911 c -0.03704,0.018521 -0.07698,0.039605 -0.121957,0.047542 -0.01852,0.00265 -0.145272,0.023771 -0.341064,0.023771 -0.563564,0 -1.703815,-0.1692093 -2.539899,-1.3942302 -0.132291,-0.1931453 -0.08204,-0.4578526 0.111105,-0.5901443 0.193145,-0.1322917 0.457853,-0.082041 0.590144,0.1111043 0.748772,1.0980208 1.793629,1.0397712 1.994713,1.0159587 -0.238126,-1.0212917 0.03204,-2.137854 0.825789,-2.931604 0.591344,-0.5926667 1.403285,-0.8888347 2.215887,-0.8888347 z m 0.503846,1.2888103 c -0.23548,0 -0.425815,0.1903346 -0.425815,0.4258138 v 0.5953125 c 0,0.2354791 0.190335,0.4258138 0.425815,0.4258138 0.235479,0 0.425813,-0.1903347 0.425813,-0.4258138 V 3.411678 c 0,-0.2354792 -0.190334,-0.4258138 -0.425813,-0.4258138 z m -1.518772,0.00258 c -0.235479,0 -0.425814,0.1903346 -0.425814,0.4258138 v 0.5953125 c 0,0.2354791 0.190335,0.4258138 0.425814,0.4258138 0.235479,0 0.425814,-0.1903347 0.425814,-0.4258138 V 3.4142618 c 0,-0.2354792 -0.190335,-0.4258138 -0.425814,-0.4258138 z m 2.494939,1.9280515 c -0.05432,-2.067e-4 -0.110174,0.00775 -0.166398,0.024288 -0.116416,0.037042 -0.211687,0.077101 -0.28577,0.1167887 -0.182563,0.09525 -0.333458,0.1503991 -0.481625,0.1715658 -0.201083,0.03175 -0.674688,0.1034975 -0.727605,0.5162475 -0.0344,0.2619375 0.124231,0.4683952 0.468189,0.6139161 h -0.0026 c 0.148167,0.0635 0.293853,0.089917 0.434083,0.089917 0.418041,0 0.782918,-0.2460418 1.002522,-0.5079793 C 18.47981,5.644906 18.537915,5.348552 18.392394,5.126302 18.303094,4.9913645 18.155902,4.9171158 17.992935,4.9164957 Z"
       id="path41" fill="#0070bb" /></g></svg>
