<?xml version="1.0" encoding="UTF-8" standalone="no"?>
<svg
   id="Vrstva_2"
   viewBox="0 0 33.42 28.31"
   version="1.1"
   xml:space="preserve"
   xmlns="http://www.w3.org/2000/svg"
   xmlns:svg="http://www.w3.org/2000/svg"><defs
     id="defs1"><clipPath
       clipPathUnits="userSpaceOnUse"
       id="clipPath4"><g
         id="use4"><path
           d="m 51.184965,9.9238014 c 0,0 13.43,-1.81 17.11,4.6699996 0,0 -6.130001,12.09 -17.87,11.68 -11.74,-0.41 -14.780001,-5.49 -14.830001,-9.7 -0.06,-4.2 7.3,-7.1199996 7.3,-7.1199996 0,0 -1.05,-0.64 -3.969999,-0.53 -2.920001,0.12 -4.210001,-1.34 -4.030001,-3.380001 0.18,-2.0399998 3.870001,0.370001 5.080001,-1.7499998 1.529999,-2.71 2.509999,-6.1999999 7.94,-5.7899999 5.43,0.41 6.35,3.5499999 6.42,6.7699999 0.06,2.6300008 -3.15,5.1400008 -3.15,5.1400008 z"
           id="path10"
           style="color:#000000;font-style:normal;font-variant:normal;font-weight:normal;font-stretch:normal;font-size:medium;line-height:normal;font-family:sans-serif;font-variant-ligatures:normal;font-variant-position:normal;font-variant-caps:normal;font-variant-numeric:normal;font-variant-alternates:normal;font-variant-east-asian:normal;font-feature-settings:normal;font-variation-settings:normal;text-indent:0;text-align:start;text-decoration-line:none;text-decoration-style:solid;text-decoration-color:#000000;letter-spacing:normal;word-spacing:normal;text-transform:none;writing-mode:lr-tb;direction:ltr;text-orientation:mixed;dominant-baseline:auto;baseline-shift:baseline;text-anchor:start;white-space:normal;shape-padding:0;shape-margin:0;inline-size:0;clip-rule:nonzero;display:inline;overflow:visible;visibility:visible;isolation:auto;mix-blend-mode:normal;color-interpolation:sRGB;color-interpolation-filters:linearRGB;solid-color:#000000;solid-opacity:1;vector-effect:none;fill:#000000;fill-opacity:1;fill-rule:nonzero;stroke:none;stroke-linecap:butt;stroke-linejoin:miter;stroke-miterlimit:4;stroke-dasharray:none;stroke-dashoffset:0;stroke-opacity:1;-inkscape-stroke:none;color-rendering:auto;image-rendering:auto;shape-rendering:auto;text-rendering:auto;enable-background:accumulate;stop-color:#000000;stop-opacity:1" /></g></clipPath></defs><g
     id="g9"
     clip-path="none"><g
       id="g8"><g
         id="g2"
         transform="matrix(-0.5098945,0.52014947,-0.52014947,-0.5098945,10.923151,-0.34740128)"
         style="fill:#ffffff;stroke:#ffffff"><g
           id="rect1"
           transform="rotate(90)"><path
             style="stroke:none"
             d="m 7.4052935,-28.183455 h 1.5546999 v 6.363423 H 7.4052935 Z"
             id="path5" /><path
             style="stroke:none"
             d="m 6.90625,-28.683594 v 7.363282 h 2.5546875 v -7.363282 z m 1,1 h 0.5546875 v 5.363282 H 7.90625 Z"
             id="path6" /></g><g
           id="rect1-4"
           transform="scale(-1)"><path
             style="stroke:none"
             d="m -25.783831,-11.37092 h 1.5547 v 6.3634222 h -1.5547 z"
             id="path7" /><path
             style="stroke:none"
             d="m -26.283203,-11.871094 v 7.3632815 h 2.554687 v -7.3632815 z m 1,1 h 0.554687 v 5.3632815 h -0.554687 z"
             id="path8" /></g></g></g></g><path
     d="M 12.075407,0.00982312 C 7.487954,0.06534112 6.5371242,3.2914638 5.1027502,5.8320886 c -1.2099999,2.1200007 -4.90007807,-0.2899998 -5.08007807,1.75 -0.18,2.0400013 1.11124907,3.5008594 4.03124997,3.3808594 2.9199989,-0.11 3.9687501,0.529296 3.9687501,0.529296 0,0 -7.35882807,2.921094 -7.29882807,7.121094 0.05,4.210001 3.09007807,9.289219 14.83007887,9.699218 11.739999,0.41 17.86914,-11.679687 17.86914,-11.679687 -3.68,-6.479999 -17.109375,-4.669922 -17.109375,-4.669922 v -0.0098 c 0,0 3.210391,-2.5106224 3.15039,-5.1406236 -0.07,-3.2200001 -0.991875,-6.35953115 -6.421875,-6.76953116 -0.339375,-0.025561 -0.660966,-0.03687012 -0.966796,-0.03316912 z m -1.033204,3.39453148 1.015625,0.9960934 -0.939453,0.9589845 0.955078,0.9375 -0.996093,1.015625 -0.955078,-0.9375 L 9.1847811,7.3320887 8.1691561,6.335995 9.1066561,5.3809168 8.1457193,4.4395105 9.1418133,3.4219327 10.102751,4.3633386 Z"
     style="baseline-shift:baseline;display:inline;overflow:visible;vector-effect:none;enable-background:accumulate;stop-color:#000000"
     id="path17" /></svg>
