<?xml version="1.0" encoding="UTF-8" standalone="no"?>
<!-- Created with Inkscape (http://www.inkscape.org/) -->

<svg
   width="210mm"
   height="297mm"
   viewBox="0 0 210 297"
   version="1.1"
   id="svg1"
   xml:space="preserve"
   inkscape:version="1.4 (86a8ad7, 2024-10-11)"
   sodipodi:docname="default.svg"
   xmlns:inkscape="http://www.inkscape.org/namespaces/inkscape"
   xmlns:sodipodi="http://sodipodi.sourceforge.net/DTD/sodipodi-0.dtd"
   xmlns="http://www.w3.org/2000/svg"
   xmlns:svg="http://www.w3.org/2000/svg"><sodipodi:namedview
     id="namedview1"
     pagecolor="#ffffff"
     bordercolor="#000000"
     borderopacity="0.25"
     inkscape:showpageshadow="2"
     inkscape:pageopacity="0.0"
     inkscape:pagecheckerboard="0"
     inkscape:deskcolor="#d1d1d1"
     inkscape:document-units="mm"
     inkscape:zoom="0.34431468"
     inkscape:cx="-455.97824"
     inkscape:cy="675.2544"
     inkscape:window-width="1920"
     inkscape:window-height="991"
     inkscape:window-x="-9"
     inkscape:window-y="-9"
     inkscape:window-maximized="1"
     inkscape:current-layer="layer1" /><defs
     id="defs1"><style
       id="style1">
      .cls-1 {
        fill: #fff;
      }
    </style></defs><g
     inkscape:label="Layer 1"
     inkscape:groupmode="layer"
     id="layer1"><g
       id="g9"
       transform="matrix(5.6156097,0,0,5.4768177,4.9859912,39.964041)"
       style="fill:#395a9a;fill-opacity:1"><path
         class="cls-1"
         d="m 2.52,22.87 -1.21,0.54 c -0.81,0.36 -1.17,1.31 -0.81,2.12 0.27,0.6 0.85,0.95 1.47,0.95 0.22,0 0.44,-0.04 0.65,-0.14 L 3.83,25.8 C 4.64,25.44 5,24.49 4.64,23.68 4.28,22.87 3.33,22.5 2.52,22.87 Z"
         id="path1"
         style="fill:#395a9a;fill-opacity:1" /><path
         class="cls-1"
         d="m 1.03,13.1 1.24,0.47 c 0.19,0.07 0.38,0.11 0.57,0.11 0.65,0 1.25,-0.39 1.5,-1.03 0.32,-0.83 -0.1,-1.76 -0.92,-2.07 L 2.18,10.11 c -0.82,-0.31 -1.75,0.1 -2.07,0.92 -0.32,0.82 0.1,1.76 0.92,2.07 z"
         id="path2"
         style="fill:#395a9a;fill-opacity:1" /><path
         class="cls-1"
         d="m 9.82,3.82 c 0.27,0.6 0.85,0.95 1.47,0.95 0.22,0 0.44,-0.04 0.65,-0.14 0.81,-0.36 1.17,-1.31 0.81,-2.12 L 12.21,1.3 C 11.85,0.49 10.9,0.13 10.09,0.49 9.28,0.85 8.92,1.8 9.28,2.61 Z"
         id="path3"
         style="fill:#395a9a;fill-opacity:1" /><path
         class="cls-1"
         d="m 22.97,4.34 c 0.19,0.07 0.38,0.11 0.57,0.11 0.65,0 1.25,-0.39 1.5,-1.03 L 25.51,2.18 C 25.83,1.35 25.41,0.42 24.59,0.11 23.77,-0.2 22.83,0.21 22.52,1.03 l -0.47,1.24 c -0.32,0.83 0.1,1.76 0.92,2.07 z"
         id="path4"
         style="fill:#395a9a;fill-opacity:1" /><path
         class="cls-1"
         d="m 32.46,12.88 c 0.22,0 0.44,-0.04 0.65,-0.14 l 1.21,-0.54 c 0.81,-0.36 1.17,-1.31 0.81,-2.12 C 34.77,9.27 33.83,8.9 33.01,9.27 L 31.8,9.81 c -0.81,0.36 -1.17,1.31 -0.81,2.12 0.26,0.6 0.85,0.95 1.47,0.95 z"
         id="path5"
         style="fill:#395a9a;fill-opacity:1" /><path
         class="cls-1"
         d="m 34.59,22.52 -1.24,-0.47 c -0.82,-0.32 -1.76,0.1 -2.07,0.92 -0.32,0.83 0.1,1.76 0.92,2.07 l 1.24,0.47 c 0.19,0.07 0.38,0.11 0.57,0.11 0.65,0 1.25,-0.39 1.5,-1.03 0.32,-0.83 -0.1,-1.76 -0.92,-2.07 z"
         id="path6"
         style="fill:#395a9a;fill-opacity:1" /><path
         class="cls-1"
         d="m 8.96,9.12 c -4.62,4.62 -4.62,12.14 0,16.76 l 0.47,0.47 h 15.82 l 0.47,-0.47 c 2.24,-2.24 3.47,-5.21 3.47,-8.38 0,-3.17 -1.23,-6.14 -3.47,-8.38 -4.48,-4.48 -12.28,-4.48 -16.76,0 z m 7.11,10.3 c 0,0.89 -0.72,1.61 -1.61,1.61 -0.89,0 -1.61,-0.72 -1.61,-1.61 v -4.51 c 0,-0.89 0.72,-1.61 1.61,-1.61 0.89,0 1.61,0.72 1.61,1.61 z m 5.75,0 c 0,0.89 -0.72,1.61 -1.61,1.61 -0.89,0 -1.61,-0.72 -1.61,-1.61 v -4.51 c 0,-0.89 0.72,-1.61 1.61,-1.61 0.89,0 1.61,0.72 1.61,1.61 z"
         id="path7"
         style="fill:#395a9a;fill-opacity:1" /><rect
         class="cls-1"
         x="10.37"
         y="27.93"
         width="13.93"
         height="4.7800002"
         id="rect7"
         style="fill:#395a9a;fill-opacity:1" /><path
         class="cls-1"
         d="m 17.34,38.35 c 2.36,0 4.27,-1.91 4.27,-4.27 h -8.54 c 0,2.36 1.91,4.27 4.27,4.27 z"
         id="path8"
         style="fill:#395a9a;fill-opacity:1" /></g></g></svg>
